<svg width="208" height="99" viewBox="0 0 208 99" fill="none" xmlns="http://www.w3.org/2000/svg">
<path d="M147.151 18.1879C143.714 16.4916 140.189 15.7095 136.524 14.6796C122.623 10.7725 107.025 10.8929 92.6961 10.7586C78.016 10.621 62.3343 12.4159 48.3509 17.1266C36.0069 21.285 22.0854 26.6345 12.7369 36.2307C7.35677 41.7533 3.33519 49.3521 7.91174 56.8088C13.8433 66.4733 25.6446 72.6507 35.7137 76.4436C44.3728 79.7054 53.5874 80.5776 62.654 81.8977C73.24 83.439 83.5157 85.0522 94.247 85.0522C118.104 85.0522 143.426 82.6973 166.452 76.0308C179.951 72.1225 196.492 66.469 204.191 53.33C212.362 39.3866 199.964 28.4008 189.601 20.5465C178.398 12.0561 164.089 9.95584 150.684 7.72198C137.639 5.54819 124.769 3.72845 111.537 3.85989C87.0489 4.10315 63.4589 10.2967 40.1941 17.6573C27.9635 21.5268 14.1994 27.7051 5.44174 37.7048C-11.2568 56.7714 23.4824 78.403 37.7816 81.4555C47.1054 83.4458 56.7619 83.6773 66.2441 84.2267C79.2483 84.9803 92.2895 84.9273 105.276 83.8729C120.699 82.6207 136.314 81.106 151.517 78.0651C163.289 75.7103 175.655 72.6414 186.011 66.184C197.501 59.019 205.266 47.944 199.624 34.2554C197.843 29.9345 193.941 27.5621 190.29 24.9097C179.302 16.9277 167.362 7.51689 154.102 3.97782C141.475 0.607949 126.741 0.595203 113.777 1.53084C96.4609 2.78065 78.7927 7.54236 62.5678 13.7362C54.0793 16.9767 46.0652 21.0554 38.1837 25.6173C31.4717 29.5023 24.1296 33.4859 18.4811 38.943C11.0004 46.1701 4.3418 57.2508 8.65849 68.0118C13.5058 80.0958 25.0089 88.3152 36.6327 92.3931C57.9794 99.882 82.6807 98.6113 104.759 96.4026C131.252 93.7523 159.032 90.4777 183.397 78.6842C192.403 74.3249 205.893 63.8577 200.515 51.8559C193.011 35.1119 180.665 24.6109 164.269 17.5983C159.06 15.3706 153.69 14.195 148.128 13.294C139.184 11.8454 129.967 10.5807 120.9 10.3458C114.349 10.1761 107.689 10.991 101.198 11.702C91.524 12.7616 81.6863 13.8245 72.3042 16.5959C58.032 20.8118 43.253 27.6302 30.6588 35.7295C25.2403 39.2141 13.6793 45.5045 13.2826 53.2416C12.8845 61.006 19.7922 66.5412 25.7475 69.9281C40.643 78.3996 58.9049 80.862 75.6358 81.5734C91.1755 82.2341 106.539 80.6435 121.934 78.5663C139.648 76.1761 157.384 73.8479 175.068 71.2548" stroke="#F86C23" stroke-opacity="0.9" stroke-width="0.83" stroke-linecap="round" stroke-linejoin="round"/>
</svg>
